<svg width="178" height="146" viewBox="0 0 178 146" fill="none" xmlns="http://www.w3.org/2000/svg">
<path d="M159.302 36.7072C159.41 38.2602 159.41 39.8133 159.41 41.3806C159.41 89.1384 122.948 144.218 56.2772 144.218V144.189C36.5824 144.218 17.2966 138.592 0.716797 127.986C3.58059 128.329 6.45873 128.501 9.34406 128.508C25.6655 128.523 41.5204 123.062 54.3608 113.006C38.8504 112.713 25.2492 102.629 20.4978 87.9074C25.9311 88.9523 31.5295 88.7376 36.8623 87.2847C19.9523 83.8781 7.78656 69.0634 7.78656 51.8583V51.4002C12.8251 54.1986 18.4666 55.7516 24.2372 55.9234C8.31051 45.3097 3.40115 24.1827 13.0189 7.66464C31.4218 30.2445 58.574 43.9714 87.7215 45.4242C84.8003 32.8711 88.7909 19.7168 98.2077 10.8924C112.807 -2.79154 135.767 -2.09017 149.49 12.4597C157.608 10.8638 165.388 7.89366 172.508 3.68542C169.802 12.0518 164.139 19.1586 156.574 23.6745C163.759 22.83 170.779 20.912 177.389 17.9848C172.523 25.2562 166.393 31.59 159.302 36.7072Z" fill="white"/>
</svg>
